<svg width="65" height="54" viewBox="0 0 65 54" fill="none" xmlns="http://www.w3.org/2000/svg">
<rect x="0.5" y="5.5" width="55" height="24" stroke="black"/>
<mask id="mask0" style="mask-type:alpha" maskUnits="userSpaceOnUse" x="0" y="5" width="56" height="25">
<rect y="5" width="56" height="25" fill="#C4C4C4"/>
</mask>
<g mask="url(#mask0)">
<line x1="-20.3536" y1="31.6132" x2="16.6135" y2="-5.35379" stroke="black"/>
<line x1="21.4472" y1="31.6132" x2="58.4143" y2="-5.35379" stroke="black"/>
<line x1="0.546837" y1="31.6132" x2="37.5139" y2="-5.35379" stroke="black"/>
<line x1="42.3476" y1="31.6132" x2="79.3146" y2="-5.35379" stroke="black"/>
<line x1="-13.3868" y1="31.6132" x2="23.5803" y2="-5.35379" stroke="black"/>
<line x1="28.414" y1="31.6132" x2="65.3811" y2="-5.35379" stroke="black"/>
<line x1="7.51363" y1="31.6132" x2="44.4807" y2="-5.35379" stroke="black"/>
<line x1="49.3144" y1="31.6132" x2="86.2814" y2="-5.35379" stroke="black"/>
<line x1="-6.41996" y1="31.6132" x2="30.5471" y2="-5.35379" stroke="black"/>
<line x1="35.3808" y1="31.6132" x2="72.3478" y2="-5.35379" stroke="black"/>
<line x1="14.4804" y1="31.6132" x2="51.4475" y2="-5.35379" stroke="black"/>
<line x1="56.2812" y1="31.6132" x2="93.2482" y2="-5.35379" stroke="black"/>
</g>
<line x1="10.5" y1="29" x2="10.5" y2="54" stroke="black"/>
<line x1="10.6748" y1="3.12224e-09" x2="10.6748" y2="5.55" stroke="black"/>
<line x1="43.5" y1="29" x2="43.5" y2="45" stroke="black"/>
<line x1="43.9746" y1="3.12224e-09" x2="43.9746" y2="5.55" stroke="black"/>
<line x1="10.1748" y1="0.5" x2="43.4748" y2="0.5" stroke="black"/>
<line x1="10.1748" y1="38.1738" x2="43.4748" y2="38.1738" stroke="black"/>
<line x1="10.1748" y1="41.875" x2="43.4748" y2="41.875" stroke="black"/>
<path d="M59 53L51.3361 35.2521C50.6411 33.6426 48.3589 33.6426 47.6639 35.2521L40 53" stroke="black" stroke-linecap="round"/>
<line x1="34.5" y1="53.5" x2="64.5" y2="53.5" stroke="black" stroke-linecap="round"/>
<line x1="49.5" y1="37" x2="49.5" y2="47" stroke="black"/>
<line x1="49.5" y1="49" x2="49.5" y2="51" stroke="black"/>
</svg>
