<svg width="100" height="80" viewBox="0 0 100 80" fill="none" xmlns="http://www.w3.org/2000/svg">
<path fill-rule="evenodd" clip-rule="evenodd" d="M49.7932 59.6926C49.7932 57.566 51.4998 55.8627 53.6231 55.8627C55.7498 55.8627 57.4565 57.566 57.4565 59.6926C57.4565 61.8193 55.7498 63.5226 53.6231 63.5226C51.4998 63.5226 49.7932 61.8193 49.7932 59.6926ZM65.3832 59.6926C65.3832 57.566 67.0865 55.8627 69.2132 55.8627C71.3398 55.8627 73.0465 57.566 73.0465 59.6926C73.0465 61.8193 71.3398 63.5226 69.2132 63.5226C67.0865 63.5226 65.3832 61.8193 65.3832 59.6926ZM29.2398 59.6926C29.2398 57.566 30.9465 55.8627 33.0698 55.8627C35.1998 55.8627 36.9065 57.566 36.9065 59.6926C36.9065 61.8193 35.1998 63.5226 33.0698 63.5226C30.9465 63.5226 29.2398 61.8193 29.2398 59.6926ZM13.6498 59.6926C13.6498 57.566 15.3565 55.8627 17.4832 55.8627C19.6065 55.8627 21.3132 57.566 21.3132 59.6926C21.3132 61.8193 19.6065 63.5226 17.4832 63.5226C15.3565 63.5226 13.6498 61.8193 13.6498 59.6926ZM41.8365 66.3326H45.1698V52.9227H41.8365V66.3326ZM21.2865 66.3326H24.6198V52.9227H21.2865V53.996C20.1565 53.2127 18.7932 52.766 17.3265 52.766C13.4932 52.766 10.3965 55.8626 10.3965 59.6926C10.3965 63.5493 13.4932 66.6227 17.3265 66.6227C18.7932 66.6227 20.1565 66.176 21.2865 65.3893V66.3326ZM73.0198 66.3326H76.3531V52.9227H73.0198V53.996C71.8898 53.2127 70.5265 52.766 69.0565 52.766C65.2231 52.766 62.1265 55.8626 62.1265 59.6926C62.1265 63.5493 65.2231 66.6227 69.0565 66.6227C70.5265 66.6227 71.8898 66.176 73.0198 65.3893V66.3326ZM77.5865 61.9793C77.6898 64.6793 80.0032 66.596 83.8598 66.596C87.0098 66.596 89.6065 65.2293 89.6065 62.2127C89.6065 60.1127 88.4265 58.8793 85.6965 58.356L83.5698 57.936C82.2065 57.6727 81.2598 57.4093 81.2598 56.596C81.2598 55.706 82.1798 55.3127 83.3365 55.3127C85.0131 55.3127 85.6965 56.1526 85.7498 57.146H89.1098C88.9231 54.5227 86.8232 52.766 83.4398 52.766C79.9498 52.766 77.8765 54.6793 77.8765 57.1727C77.8765 60.216 80.3431 60.7193 82.4698 61.1093L84.2265 61.426C85.4865 61.6627 86.0365 62.0293 86.0365 62.7627C86.0365 63.4193 85.4098 64.076 83.9098 64.076C81.7332 64.076 81.0231 62.9493 80.9965 61.9793H77.5865ZM36.8798 48.356V53.996C35.7498 53.2127 34.3865 52.766 32.9165 52.766C29.0831 52.766 25.9831 55.8626 25.9831 59.6926C25.9831 63.5493 29.0831 66.6227 32.9165 66.6227C34.3865 66.6227 35.7498 66.176 36.8798 65.3893V66.3326H40.2132V48.356H36.8798ZM57.4298 48.356V53.996C56.2998 53.2127 54.9365 52.766 53.4665 52.766C49.6332 52.766 46.5365 55.8626 46.5365 59.6926C46.5365 63.5493 49.6332 66.6227 53.4665 66.6227C54.9365 66.6227 56.2998 66.176 57.4298 65.3893V66.3326H60.7632V48.356H57.4298ZM19.0565 44.3893L21.3132 48.356H36.8798L30.7098 37.696L19.0565 44.3893ZM45.1698 51.6893V48.356H57.4298L44.3565 25.7327L32.6765 32.4227L41.8365 48.356V51.6893H45.1698ZM62.3898 48.356H77.9798L57.8232 13.4727L46.1698 20.1893L62.3898 48.356Z" fill="white"/>
</svg>
