<svg width="20" height="20" viewBox="0 0 20 20" fill="none" xmlns="http://www.w3.org/2000/svg">
<path d="M17.9676 17H1.96936C1.60264 17 1.30273 16.7001 1.30273 16.3334V13.0004C1.30273 11.9007 2.20264 11.0008 3.3026 11.0008H7.56884C7.4354 10.2007 7.03547 9.43424 6.46888 8.76762C5.70241 7.90093 5.30247 6.80115 5.30247 5.66797C5.30247 4.40135 5.80244 3.20154 6.73556 2.30163C7.66869 1.40173 8.8685 0.968389 10.1683 1.00179C12.5681 1.10182 14.6012 3.16813 14.6345 5.56794C14.6679 6.76775 14.2011 7.93434 13.4012 8.83424C12.8346 9.43424 12.5013 10.1675 12.3681 11.0008H16.6343C17.7341 11.0008 18.6342 11.9007 18.6342 13.0004V16.3334C18.6342 16.7001 18.3341 17 17.9676 17Z" stroke="white"/>
<path d="M1.5 19.374H18.5" stroke="white" stroke-linecap="square"/>
</svg>
