<svg width="20" height="20" viewBox="0 0 20 20" fill="none" xmlns="http://www.w3.org/2000/svg">
<path d="M13.5001 13.0716C12.632 13.0716 11.9287 12.3683 11.9287 11.5001C11.9287 10.632 12.632 9.92871 13.5001 9.92871C14.3683 9.92871 15.0716 10.632 15.0716 11.5001C15.0716 12.3683 14.3683 13.0716 13.5001 13.0716V13.0716Z" stroke="white"/>
<path d="M18.8981 10.4185C18.8956 10.3951 18.8932 10.3755 18.8895 10.3638V10.3534L18.8846 10.3248C18.7975 9.87447 18.5165 9.58424 18.1667 9.58424H18.109C17.5127 9.58424 17.0292 9.06886 17.0292 8.43895C17.0292 8.29319 17.093 8.08625 17.12 8.01337C17.2893 7.5943 17.1089 7.11666 16.6905 6.87328L15.3738 6.08329L15.3492 6.07418C15.2511 6.04035 15.137 6 15.0093 6C14.7713 6 14.5038 6.11713 14.3381 6.29283C14.1307 6.51018 13.7098 6.83424 13.4595 6.83424C13.2104 6.83424 12.7882 6.51148 12.5809 6.29283C12.4041 6.10802 12.16 6 11.9096 6C11.7783 6 11.6679 6.03904 11.5697 6.07418L11.5476 6.08329L10.1671 6.87589L10.1585 6.88109C9.82351 7.10364 9.6873 7.61382 9.85787 8.01858L9.86032 8.02378L9.86277 8.02899C9.88977 8.09276 9.97322 8.3088 9.97322 8.49752C9.97322 9.13003 9.48727 9.64281 8.89335 9.64281H8.83567C8.46999 9.64281 8.19634 9.92913 8.1178 10.3885L8.1129 10.4146V10.4237C8.1129 10.4367 8.10799 10.4549 8.10431 10.4783C8.07363 10.6749 8 11.1382 8 11.5169C8 11.8956 8.0724 12.359 8.10431 12.5555C8.10676 12.5789 8.10921 12.5984 8.1129 12.6102V12.6206L8.1178 12.6492C8.20493 13.0995 8.48594 13.3897 8.83567 13.3897H8.86512C9.4615 13.3897 9.94499 13.9051 9.94499 14.535C9.94499 14.6808 9.88118 14.8877 9.85418 14.9606C9.69098 15.3549 9.84559 15.8612 10.2064 16.1163L10.2162 16.1215L11.5169 16.8894L11.5415 16.8985C11.6396 16.9323 11.7513 16.9727 11.8789 16.9727C12.1514 16.9727 12.3968 16.862 12.5502 16.6798C12.5649 16.6681 12.5796 16.6525 12.5968 16.6369C12.7539 16.4911 13.176 16.1059 13.4546 16.1059C13.662 16.1059 14.0092 16.3363 14.359 16.7072C14.5357 16.892 14.7799 17 15.0302 17C15.1995 17 15.3247 16.9505 15.467 16.8764L15.472 16.8738L16.8058 16.0916L16.8108 16.0864C17.1458 15.8638 17.282 15.3536 17.1114 14.9489L17.1089 14.9437L17.1065 14.9385C17.104 14.9372 16.9997 14.7068 17.0194 14.4999L17.0218 14.4869V14.4739C17.0218 13.8413 17.5078 13.3286 18.1017 13.3286H18.163C18.5287 13.3286 18.8024 13.0422 18.8809 12.5828L18.8858 12.5568V12.5477C18.8883 12.5373 18.8907 12.5217 18.8944 12.5008C18.9263 12.3095 18.9999 11.8631 18.9999 11.4544C19.0024 11.077 18.93 10.615 18.8981 10.4185V10.4185Z" stroke="white"/>
<line x1="0.5" y1="1" x2="0.499999" y2="19" stroke="white"/>
<line x1="5.5" y1="1" x2="5.5" y2="19" stroke="white"/>
<line x1="10.5" y1="1" x2="10.5" y2="5" stroke="white"/>
</svg>
