<svg width="22" height="22" viewBox="0 0 22 22" fill="none" xmlns="http://www.w3.org/2000/svg">
    <path d="M17.9676 19H1.96936C1.60264 19 1.30273 18.7001 1.30273 18.3334V15.0004C1.30273 13.9007 2.20264 13.0008 3.3026 13.0008H7.56884C7.4354 12.2007 7.03547 11.4342 6.46888 10.7676C5.70241 9.90093 5.30247 8.80115 5.30247 7.66797C5.30247 6.40135 5.80244 5.20154 6.73556 4.30163C7.66869 3.40173 8.8685 2.96839 10.1683 3.00179C12.5681 3.10182 14.6012 5.16813 14.6345 7.56794C14.6679 8.76775 14.2011 9.93434 13.4012 10.8342C12.8346 11.4342 12.5013 12.1675 12.3681 13.0008H16.6343C17.7341 13.0008 18.6342 13.9007 18.6342 15.0004V18.3334C18.6342 18.7001 18.3341 19 17.9676 19Z" stroke="white"/>
    <path d="M1.5 21.374H18.5" stroke="white" stroke-linecap="square"/>
    <circle cx="17" cy="5" r="4" fill="#AE4747" stroke="black" stroke-width="2"/>
</svg>