<svg width="20" height="20" viewBox="0 0 20 20" fill="none" xmlns="http://www.w3.org/2000/svg">
<path fill-rule="evenodd" clip-rule="evenodd" d="M8.89188 9C8.40675 9 7.92124 8.91633 7.46205 8.72101C6.4914 8.33005 5.76232 7.57594 5.33108 6.59839C4.89914 5.62179 4.89914 4.53227 5.27681 3.52706C5.65517 2.52194 6.38294 1.76791 7.32695 1.32109C8.27065 0.930132 12.3173 0.818487 12.8301 1.43306C13.0987 1.73962 13.0454 2.35451 12.6943 3.94631C12.6674 4.02935 12.5869 4.5047 12.5602 4.67141C12.3174 6.40307 12.0744 7.9108 10.4289 8.66522C9.94413 8.88835 9.43159 9 8.89188 9Z" stroke="white"/>
<path d="M6.5 8.08496C3.78893 9.1356 2 11.7588 2 14.7706C2 15.5325 2.41443 16.5486 4.33839 17.2742C5.58166 17.746 7.23945 17.9997 9.0155 17.9997C9.8963 17.9997 10.8168 17.9375 11.6897 17.7983" stroke="white"/>
<path d="M13.5 15C12.6713 15 12 14.3287 12 13.5C12 12.6713 12.6713 12 13.5 12C14.3287 12 15 12.6713 15 13.5C15 14.3287 14.3287 15 13.5 15V15Z" stroke="white"/>
<path d="M17.9166 12.6151C17.9146 12.596 17.9126 12.58 17.9096 12.5704V12.5619L17.9056 12.5385C17.8343 12.17 17.6044 11.9326 17.3182 11.9326H17.271C16.7831 11.9326 16.3875 11.5109 16.3875 10.9955C16.3875 10.8762 16.4397 10.7069 16.4618 10.6473C16.6004 10.3044 16.4528 9.91363 16.1104 9.71451L15.0331 9.06815L15.013 9.0607C14.9327 9.03301 14.8393 9 14.7349 9C14.5401 9 14.3213 9.09584 14.1857 9.23959C14.016 9.41742 13.6717 9.68256 13.4668 9.68256C13.263 9.68256 12.9176 9.41848 12.748 9.23959C12.6034 9.08838 12.4036 9 12.1988 9C12.0913 9 12.001 9.03195 11.9207 9.0607L11.9026 9.06815L10.7731 9.71664L10.7661 9.72089C10.492 9.90298 10.3805 10.3204 10.5201 10.6516L10.5221 10.6558L10.5241 10.6601C10.5462 10.7123 10.6144 10.889 10.6144 11.0434C10.6144 11.5609 10.2169 11.9805 9.73092 11.9805H9.68373C9.38454 11.9805 9.16064 12.2147 9.09639 12.5906L9.09237 12.6119V12.6194C9.09237 12.63 9.08835 12.6449 9.08534 12.6641C9.06024 12.8249 9 13.204 9 13.5138C9 13.8237 9.05924 14.2028 9.08534 14.3636C9.08735 14.3827 9.08936 14.3987 9.09237 14.4083V14.4168L9.09639 14.4403C9.16767 14.8087 9.39759 15.0461 9.68373 15.0461H9.70783C10.1958 15.0461 10.5914 15.4678 10.5914 15.9832C10.5914 16.1025 10.5391 16.2718 10.5171 16.3314C10.3835 16.654 10.51 17.0683 10.8052 17.277L10.8132 17.2812L11.8775 17.9095L11.8976 17.9169C11.9779 17.9446 12.0693 17.9776 12.1737 17.9776C12.3966 17.9776 12.5974 17.8871 12.7229 17.7381C12.7349 17.7285 12.747 17.7157 12.761 17.7029C12.8895 17.5836 13.2349 17.2685 13.4628 17.2685C13.6325 17.2685 13.9166 17.4569 14.2028 17.7604C14.3474 17.9116 14.5472 18 14.752 18C14.8905 18 14.9929 17.9595 15.1094 17.8988L15.1134 17.8967L16.2048 17.2567L16.2088 17.2525C16.4829 17.0704 16.5943 16.653 16.4548 16.3218L16.4528 16.3176L16.4508 16.3133C16.4488 16.3122 16.3634 16.1238 16.3795 15.9544L16.3815 15.9438V15.9332C16.3815 15.4156 16.7791 14.9961 17.265 14.9961H17.3152C17.6144 14.9961 17.8383 14.7618 17.9026 14.3859L17.9066 14.3646V14.3572C17.9086 14.3487 17.9106 14.3359 17.9136 14.3189C17.9397 14.1623 18 13.7971 18 13.4627C18.002 13.1539 17.9427 12.7759 17.9166 12.6151V12.6151Z" stroke="white"/>
</svg>
