<?xml version="1.0" encoding="UTF-8"?>
<svg xmlns="http://www.w3.org/2000/svg" xmlns:xlink="http://www.w3.org/1999/xlink" width="18px" height="15px" viewBox="0 0 18 15" version="1.1">
<g id="surface1">
<path style=" stroke:none;fill-rule:evenodd;fill:rgb(98.431373%,39.607843%,0%);fill-opacity:1;" d="M 11.925781 12.222656 C 11.933594 12.230469 11.9375 12.238281 11.945312 12.242188 C 11.953125 12.253906 11.964844 12.261719 11.976562 12.269531 C 12.003906 12.292969 12.027344 12.316406 12.050781 12.339844 C 12.507812 12.796875 12.796875 13.363281 12.914062 13.953125 C 12.914062 13.984375 12.917969 14.019531 12.925781 14.050781 C 12.929688 14.089844 12.9375 14.125 12.949219 14.160156 C 12.992188 14.328125 13.082031 14.484375 13.210938 14.613281 C 13.609375 15.015625 14.257812 15.015625 14.660156 14.613281 C 15.058594 14.214844 15.058594 13.566406 14.660156 13.167969 C 14.519531 13.023438 14.347656 12.933594 14.164062 12.894531 C 14.144531 12.886719 14.125 12.882812 14.105469 12.878906 C 14.082031 12.878906 14.0625 12.875 14.042969 12.871094 C 13.4375 12.757812 12.859375 12.46875 12.390625 12 C 12.355469 11.964844 12.324219 11.933594 12.289062 11.898438 C 12.195312 11.800781 12.039062 11.800781 11.945312 11.898438 C 11.855469 11.988281 11.847656 12.128906 11.925781 12.222656 "/>
<path style=" stroke:none;fill-rule:evenodd;fill:rgb(0%,50.980392%,93.72549%);fill-opacity:1;" d="M 15.164062 13.011719 C 15.171875 13.003906 15.175781 13 15.183594 12.992188 C 15.195312 12.984375 15.203125 12.972656 15.210938 12.960938 C 15.234375 12.933594 15.257812 12.910156 15.28125 12.886719 C 15.738281 12.429688 16.300781 12.140625 16.894531 12.023438 C 16.925781 12.023438 16.960938 12.019531 16.992188 12.011719 C 17.027344 12.007812 17.066406 12 17.101562 11.988281 C 17.265625 11.945312 17.425781 11.855469 17.554688 11.726562 C 17.953125 11.328125 17.953125 10.679688 17.554688 10.277344 C 17.15625 9.878906 16.507812 9.878906 16.105469 10.277344 C 15.964844 10.417969 15.875 10.589844 15.832031 10.773438 C 15.828125 10.792969 15.824219 10.8125 15.820312 10.832031 C 15.816406 10.855469 15.816406 10.875 15.8125 10.894531 C 15.699219 11.5 15.410156 12.078125 14.941406 12.546875 C 14.90625 12.582031 14.871094 12.613281 14.835938 12.648438 C 14.742188 12.742188 14.742188 12.898438 14.835938 12.992188 C 14.925781 13.082031 15.066406 13.089844 15.164062 13.011719 "/>
<path style=" stroke:none;fill-rule:evenodd;fill:rgb(17.647059%,73.72549%,0%);fill-opacity:1;" d="M 15.949219 9.773438 C 15.945312 9.765625 15.941406 9.761719 15.933594 9.753906 C 15.921875 9.742188 15.910156 9.734375 15.898438 9.726562 C 15.875 9.703125 15.851562 9.679688 15.828125 9.65625 C 15.371094 9.199219 15.082031 8.636719 14.964844 8.042969 C 14.960938 8.011719 14.957031 7.976562 14.953125 7.945312 C 14.949219 7.910156 14.941406 7.871094 14.929688 7.835938 C 14.882812 7.671875 14.796875 7.511719 14.667969 7.382812 C 14.265625 6.984375 13.617188 6.984375 13.21875 7.382812 C 12.820312 7.78125 12.820312 8.429688 13.21875 8.832031 C 13.359375 8.972656 13.53125 9.0625 13.710938 9.105469 C 13.734375 9.109375 13.753906 9.113281 13.773438 9.117188 C 13.792969 9.121094 13.816406 9.121094 13.835938 9.125 C 14.441406 9.238281 15.019531 9.527344 15.488281 9.996094 C 15.523438 10.03125 15.554688 10.066406 15.585938 10.101562 C 15.683594 10.195312 15.839844 10.195312 15.933594 10.101562 C 16.023438 10.011719 16.027344 9.871094 15.949219 9.773438 "/>
<path style=" stroke:none;fill-rule:evenodd;fill:rgb(100%,80%,0%);fill-opacity:1;" d="M 12.714844 8.988281 C 12.707031 8.992188 12.699219 8.996094 12.695312 9.003906 C 12.683594 9.015625 12.675781 9.027344 12.667969 9.039062 C 12.644531 9.0625 12.621094 9.085938 12.597656 9.109375 C 12.140625 9.566406 11.574219 9.855469 10.984375 9.972656 C 10.953125 9.976562 10.917969 9.980469 10.886719 9.984375 C 10.847656 9.988281 10.8125 9.996094 10.777344 10.007812 C 10.609375 10.054688 10.453125 10.140625 10.324219 10.269531 C 9.921875 10.671875 9.921875 11.320312 10.324219 11.71875 C 10.722656 12.117188 11.371094 12.117188 11.769531 11.71875 C 11.914062 11.578125 12.003906 11.40625 12.042969 11.226562 C 12.050781 11.203125 12.054688 11.183594 12.058594 11.164062 C 12.058594 11.144531 12.0625 11.121094 12.066406 11.101562 C 12.179688 10.496094 12.46875 9.917969 12.9375 9.449219 C 12.972656 9.414062 13.003906 9.382812 13.039062 9.351562 C 13.136719 9.253906 13.136719 9.097656 13.039062 9.003906 C 12.949219 8.914062 12.808594 8.910156 12.714844 8.988281 "/>
<path style=" stroke:none;fill-rule:evenodd;fill:rgb(0%,47.45098%,87.058824%);fill-opacity:1;" d="M 14.234375 3.984375 C 13.953125 3.398438 13.570312 2.855469 13.097656 2.371094 C 11.910156 1.140625 10.25 0.351562 8.417969 0.140625 C 8.089844 0.105469 7.765625 0.0859375 7.449219 0.0859375 C 7.152344 0.0859375 6.839844 0.101562 6.523438 0.136719 C 4.683594 0.335938 3.011719 1.125 1.816406 2.351562 C 1.34375 2.839844 0.960938 3.378906 0.671875 3.964844 C 0.285156 4.753906 0.0859375 5.597656 0.0859375 6.460938 C 0.0859375 7.578125 0.425781 8.675781 1.066406 9.640625 C 1.429688 10.1875 2.050781 10.894531 2.582031 11.324219 L 2.289062 12.542969 L 2.203125 12.886719 C 2.1875 12.917969 2.175781 12.953125 2.167969 12.992188 C 2.164062 13.015625 2.164062 13.039062 2.160156 13.0625 C 2.160156 13.078125 2.15625 13.09375 2.15625 13.113281 C 2.15625 13.425781 2.410156 13.679688 2.722656 13.679688 C 2.824219 13.679688 2.917969 13.652344 3 13.605469 C 3.003906 13.601562 3.007812 13.601562 3.007812 13.597656 C 3.023438 13.59375 3.035156 13.585938 3.046875 13.578125 L 5.148438 12.523438 C 5.601562 12.652344 6.046875 12.734375 6.523438 12.789062 C 6.828125 12.820312 7.140625 12.839844 7.449219 12.839844 C 7.765625 12.839844 8.089844 12.820312 8.417969 12.78125 C 9.0625 12.710938 9.683594 12.5625 10.273438 12.347656 C 10.210938 12.328125 10.148438 12.300781 10.085938 12.265625 C 9.726562 12.058594 9.539062 11.667969 9.578125 11.277344 C 9.15625 11.414062 8.714844 11.507812 8.261719 11.558594 C 7.984375 11.589844 7.710938 11.609375 7.449219 11.609375 C 7.191406 11.609375 6.929688 11.59375 6.671875 11.566406 C 6.621094 11.558594 6.566406 11.550781 6.511719 11.542969 C 6.160156 11.496094 5.808594 11.425781 5.472656 11.324219 C 5.402344 11.304688 5.328125 11.292969 5.253906 11.292969 C 5.136719 11.292969 5.027344 11.324219 4.910156 11.382812 C 4.894531 11.390625 4.882812 11.398438 4.867188 11.40625 L 3.519531 12.199219 L 3.515625 12.199219 C 3.488281 12.21875 3.472656 12.222656 3.457031 12.222656 C 3.410156 12.222656 3.371094 12.183594 3.371094 12.132812 L 3.421875 11.933594 C 3.4375 11.878906 3.457031 11.804688 3.480469 11.714844 C 3.539062 11.488281 3.617188 11.183594 3.679688 10.953125 C 3.691406 10.90625 3.703125 10.851562 3.703125 10.789062 C 3.703125 10.617188 3.621094 10.453125 3.484375 10.351562 C 3.414062 10.296875 3.34375 10.242188 3.269531 10.183594 C 3.15625 10.089844 3.046875 9.996094 2.941406 9.898438 C 2.652344 9.617188 2.394531 9.316406 2.175781 8.992188 C 1.667969 8.226562 1.402344 7.359375 1.402344 6.484375 C 1.402344 5.804688 1.554688 5.140625 1.863281 4.515625 C 2.09375 4.050781 2.402344 3.617188 2.78125 3.226562 C 3.761719 2.214844 5.144531 1.566406 6.671875 1.402344 C 6.9375 1.375 7.199219 1.359375 7.449219 1.359375 C 7.710938 1.359375 7.984375 1.375 8.261719 1.40625 C 9.78125 1.578125 11.15625 2.230469 12.132812 3.238281 C 12.507812 3.628906 12.816406 4.066406 13.042969 4.53125 C 13.347656 5.152344 13.5 5.808594 13.5 6.484375 C 13.5 6.554688 13.496094 6.621094 13.492188 6.691406 C 13.886719 6.453125 14.40625 6.5 14.746094 6.839844 C 14.765625 6.855469 14.78125 6.875 14.796875 6.894531 C 14.808594 6.75 14.8125 6.605469 14.8125 6.460938 C 14.8125 5.605469 14.617188 4.769531 14.234375 3.984375 "/>
</g>
</svg>
